<svg version="1.1" xmlns="http://www.w3.org/2000/svg" xmlns:xlink="http://www.w3.org/1999/xlink" width="290.1017" height="56.78443" viewBox="0,0,290.1017,56.78443"><defs><radialGradient cx="240" cy="123.00001" r="143" gradientUnits="userSpaceOnUse" id="color-1"><stop offset="0" stop-color="#505050"/><stop offset="1" stop-color="#313131"/></radialGradient></defs><g transform="translate(-94.06836,-72.96558)"><g data-paper-data="{&quot;isPaintingLayer&quot;:true}" fill-rule="nonzero" stroke-linejoin="miter" stroke-miterlimit="10" stroke-dasharray="" stroke-dashoffset="0" style="mix-blend-mode: normal"><path d="M97,129.50001v-13h286v13z" fill="url(#color-1)" stroke="#000000" stroke-width="0.5" stroke-linecap="butt"/><path d="M113.82005,116.26446l-18.5,-14l38.57308,-28.54888" fill="none" stroke="#313131" stroke-width="1.5" stroke-linecap="round"/><path d="M133.88672,116.26447l-37.83333,-30.33333" fill="none" stroke="#313131" stroke-width="1.5" stroke-linecap="round"/><path d="M151.48672,116.46447l-51.5,-42.33333" fill="none" stroke="#313131" stroke-width="1.5" stroke-linecap="round"/><path d="M118.05339,74.46447l52.83333,42" fill="none" stroke="#313131" stroke-width="1.5" stroke-linecap="round"/><path d="M190.08672,116.26446l-51.83333,-41.33333" fill="none" stroke="#313131" stroke-width="1.5" stroke-linecap="round"/><path d="M158.32005,75.93113l51.16667,40.33333" fill="none" stroke="#313131" stroke-width="1.5" stroke-linecap="round"/><path d="M227.08672,116.46447l-49.5,-40" fill="none" stroke="#313131" stroke-width="1.5" stroke-linecap="round"/><path d="M196.98672,76.13113l49.5,40.33334" fill="none" stroke="#313131" stroke-width="1.5" stroke-linecap="round"/><path d="M266.55339,116.26447l-50.5,-40.66667" fill="none" stroke="#313131" stroke-width="1.5" stroke-linecap="round"/><path d="M284.15339,116.46446l-48.5,-40.66667" fill="none" stroke="#313131" stroke-width="1.5" stroke-linecap="round"/><path d="M303.55339,116.46447l-47.5,-39.66667" fill="none" stroke="#313131" stroke-width="1.5" stroke-linecap="round"/><path d="M322.75339,116.26447l-47.5,-40.33334" fill="none" stroke="#313131" stroke-width="1.5" stroke-linecap="round"/><path d="M342.15339,116.26447l-46.5,-40.33334" fill="none" stroke="#313131" stroke-width="1.5" stroke-linecap="round"/><path d="M359.75339,116.46445l-45.83333,-40.66666" fill="none" stroke="#313131" stroke-width="1.5" stroke-linecap="round"/><path d="M379.15339,116.46447l-46.5,-41" fill="none" stroke="#313131" stroke-width="1.5" stroke-linecap="round"/><path d="M350.93926,75.17227l31.21413,26.42553l-17.5,14.66667" data-paper-data="{&quot;index&quot;:null}" fill="none" stroke="#313131" stroke-width="1.5" stroke-linecap="round"/><path d="M383.42006,84.93114l-38.83334,31.33333" data-paper-data="{&quot;index&quot;:null}" fill="none" stroke="#313131" stroke-width="1.5" stroke-linecap="round"/><path d="M326.98672,116.46446l51.16667,-40.66666" data-paper-data="{&quot;index&quot;:null}" fill="none" stroke="#313131" stroke-width="1.5" stroke-linecap="round"/><path d="M307.58672,116.46447l51.5,-40.66667" data-paper-data="{&quot;index&quot;:null}" fill="none" stroke="#313131" stroke-width="1.5" stroke-linecap="round"/><path d="M288.38671,116.26447l51.5,-40.66667" data-paper-data="{&quot;index&quot;:null}" fill="none" stroke="#313131" stroke-width="1.5" stroke-linecap="round"/><path d="M321.15339,76.26447l-52.16667,40" data-paper-data="{&quot;index&quot;:null}" fill="none" stroke="#313131" stroke-width="1.5" stroke-linecap="round"/><path d="M303.22004,76.7978l-51.83333,39.66667" data-paper-data="{&quot;index&quot;:null}" fill="none" stroke="#313131" stroke-width="1.5" stroke-linecap="round"/><path d="M285.48672,75.7978l-53.5,40.66667" data-paper-data="{&quot;index&quot;:null}" fill="none" stroke="#313131" stroke-width="1.5" stroke-linecap="round"/><path d="M267.75338,76.26447l-55.83333,40" data-paper-data="{&quot;index&quot;:null}" fill="none" stroke="#313131" stroke-width="1.5" stroke-linecap="round"/><path d="M194.48672,115.7978l53.5,-38.66667" data-paper-data="{&quot;index&quot;:null}" fill="none" stroke="#313131" stroke-width="1.5" stroke-linecap="round"/><path d="M230.75338,76.46447l-55.83333,40" data-paper-data="{&quot;index&quot;:null}" fill="none" stroke="#313131" stroke-width="1.5" stroke-linecap="round"/><path d="M212.88672,75.93114l-57.16667,40.33333" data-paper-data="{&quot;index&quot;:null}" fill="none" stroke="#313131" stroke-width="1.5" stroke-linecap="round"/><path d="M193.48671,76.26447l-57.16666,40" data-paper-data="{&quot;index&quot;:null}" fill="none" stroke="#313131" stroke-width="1.5" stroke-linecap="round"/><path d="M174.22005,76.46446l-55.5,40" data-paper-data="{&quot;index&quot;:null}" fill="none" stroke="#313131" stroke-width="1.5" stroke-linecap="round"/><path d="M155.48672,75.46447l-56.16667,41" data-paper-data="{&quot;index&quot;:null}" fill="none" stroke="#313131" stroke-width="1.5" stroke-linecap="round"/></g></g></svg>