<svg version="1.1" xmlns="http://www.w3.org/2000/svg" xmlns:xlink="http://www.w3.org/1999/xlink" width="292.01408" height="82.84293" viewBox="0,0,292.01408,82.84293"><defs><radialGradient cx="240.00001" cy="148.73478" r="143" gradientUnits="userSpaceOnUse" id="color-1"><stop offset="0" stop-color="#505050"/><stop offset="1" stop-color="#313131"/></radialGradient></defs><g transform="translate(-94.08865,-72.64185)"><g data-paper-data="{&quot;isPaintingLayer&quot;:true}" fill-rule="nonzero" stroke-linejoin="miter" stroke-miterlimit="10" stroke-dasharray="" stroke-dashoffset="0" style="mix-blend-mode: normal"><path d="M97.00001,155.23478v-13h286v13z" fill="url(#color-1)" stroke="#000000" stroke-width="0.5" stroke-linecap="butt"/><path d="M113.82006,141.99923l-18.5,-14l68.50138,-53.37298" fill="none" stroke="#313131" stroke-width="1.5" stroke-linecap="round"/><path d="M133.88673,141.99924l-37.83333,-30.33333l49.72559,-37.94572" fill="none" stroke="#313131" stroke-width="1.5" stroke-linecap="round"/><path d="M151.48673,142.19923l-55.38449,-46.70339l28.35787,-20.66029" fill="none" stroke="#313131" stroke-width="1.5" stroke-linecap="round"/><path d="M96.80016,80.39109l74.08657,61.80815" fill="none" stroke="#313131" stroke-width="1.5" stroke-linecap="round"/><path d="M190.08673,141.99924l-78.33948,-67.0635" fill="none" stroke="#313131" stroke-width="1.5" stroke-linecap="round"/><path d="M132.58988,74.83451l76.89684,67.16472" fill="none" stroke="#313131" stroke-width="1.5" stroke-linecap="round"/><path d="M153.48517,75.11926l73.60156,67.07997" fill="none" stroke="#313131" stroke-width="1.5" stroke-linecap="round"/><path d="M173.92134,74.54895l72.56538,67.65029" fill="none" stroke="#313131" stroke-width="1.5" stroke-linecap="round"/><path d="M194.68167,74.43613l71.87172,67.56311" fill="none" stroke="#313131" stroke-width="1.5" stroke-linecap="round"/><path d="M211.56345,73.7951l72.58995,68.40414" fill="none" stroke="#313131" stroke-width="1.5" stroke-linecap="round"/><path d="M303.5534,142.19923l-69.30385,-68.80738" fill="none" stroke="#313131" stroke-width="1.5" stroke-linecap="round"/><path d="M322.7534,141.99924l-66.7041,-68.43788" fill="none" stroke="#313131" stroke-width="1.5" stroke-linecap="round"/><path d="M342.15339,141.99924l-66.9122,-67.95232" fill="none" stroke="#313131" stroke-width="1.5" stroke-linecap="round"/><path d="M293.49625,73.54651l66.25714,68.65271" fill="none" stroke="#313131" stroke-width="1.5" stroke-linecap="round"/><path d="M379.1534,142.19924l-68.48738,-68.61898" fill="none" stroke="#313131" stroke-width="1.5" stroke-linecap="round"/><path d="M327.32327,73.77363l54.83013,53.55895l-17.5,14.66667" data-paper-data="{&quot;index&quot;:null}" fill="none" stroke="#313131" stroke-width="1.5" stroke-linecap="round"/><path d="M344.92199,73.89211l38.49808,36.7738l-38.83334,31.33333" data-paper-data="{&quot;index&quot;:null}" fill="none" stroke="#313131" stroke-width="1.5" stroke-linecap="round"/><path d="M361.24765,74.53354l23.70361,22.14341l-57.96454,45.52228" data-paper-data="{&quot;index&quot;:null}" fill="none" stroke="#313131" stroke-width="1.5" stroke-linecap="round"/><path d="M384.5497,80.80672l-76.96297,61.39251" data-paper-data="{&quot;index&quot;:null}" fill="none" stroke="#313131" stroke-width="1.5" stroke-linecap="round"/><path d="M373.32082,74.38268l-84.93411,67.61654" data-paper-data="{&quot;index&quot;:null}" fill="none" stroke="#313131" stroke-width="1.5" stroke-linecap="round"/><path d="M352.94729,74.14328l-83.96055,67.85595" data-paper-data="{&quot;index&quot;:null}" fill="none" stroke="#313131" stroke-width="1.5" stroke-linecap="round"/><path d="M334.59342,74.42803l-83.20671,67.77121" data-paper-data="{&quot;index&quot;:null}" fill="none" stroke="#313131" stroke-width="1.5" stroke-linecap="round"/><path d="M315.41502,74.46419l-83.4283,67.73503" data-paper-data="{&quot;index&quot;:null}" fill="none" stroke="#313131" stroke-width="1.5" stroke-linecap="round"/><path d="M211.92006,141.99924l83.70089,-68.15797" data-paper-data="{&quot;index&quot;:null}" fill="none" stroke="#313131" stroke-width="1.5" stroke-linecap="round"/><path d="M276.10287,74.34084l-81.61615,67.19172" data-paper-data="{&quot;index&quot;:null}" fill="none" stroke="#313131" stroke-width="1.5" stroke-linecap="round"/><path d="M174.92006,142.19923l83.58241,-68.03949" data-paper-data="{&quot;index&quot;:null}" fill="none" stroke="#313131" stroke-width="1.5" stroke-linecap="round"/><path d="M239.72973,74.89956l-84.00967,67.09967" data-paper-data="{&quot;index&quot;:null}" fill="none" stroke="#313131" stroke-width="1.5" stroke-linecap="round"/><path d="M136.32006,141.99924l85.53139,-68.03949" data-paper-data="{&quot;index&quot;:null}" fill="none" stroke="#313131" stroke-width="1.5" stroke-linecap="round"/><path d="M203.91138,74.15973l-85.19132,68.03949" data-paper-data="{&quot;index&quot;:null}" fill="none" stroke="#313131" stroke-width="1.5" stroke-linecap="round"/><path d="M99.32006,142.19923l85.30738,-68.2519" data-paper-data="{&quot;index&quot;:null}" fill="none" stroke="#313131" stroke-width="1.5" stroke-linecap="round"/></g></g></svg>