<svg version="1.1" xmlns="http://www.w3.org/2000/svg" xmlns:xlink="http://www.w3.org/1999/xlink" width="288.67995" height="37.56887" viewBox="0,0,288.67995,37.56887"><defs><radialGradient cx="240" cy="107.64439" r="143" gradientUnits="userSpaceOnUse" id="color-1"><stop offset="0" stop-color="#505050"/><stop offset="1" stop-color="#313131"/></radialGradient></defs><g transform="translate(-94.57005,-76.82552)"><g data-paper-data="{&quot;isPaintingLayer&quot;:true}" fill-rule="nonzero" stroke-linejoin="miter" stroke-miterlimit="10" stroke-dasharray="" stroke-dashoffset="0" style="mix-blend-mode: normal"><path d="M97,114.14439v-13h286v13z" fill="url(#color-1)" stroke="#000000" stroke-width="0.5" stroke-linecap="butt"/><path d="M113.82005,100.90884l-18.5,-14" fill="none" stroke="#313131" stroke-width="1.5" stroke-linecap="round"/><path d="M133.88672,100.90885l-27.83333,-23" fill="none" stroke="#313131" stroke-width="1.5" stroke-linecap="round"/><path d="M151.48672,101.10885l-26.5,-22" fill="none" stroke="#313131" stroke-width="1.5" stroke-linecap="round"/><path d="M170.88672,101.10885l-27.83333,-22" fill="none" stroke="#313131" stroke-width="1.5" stroke-linecap="round"/><path d="M161.58672,78.57551l28.5,22.33333" fill="none" stroke="#313131" stroke-width="1.5" stroke-linecap="round"/><path d="M209.48672,100.90884l-28.16667,-22.33333" fill="none" stroke="#313131" stroke-width="1.5" stroke-linecap="round"/><path d="M200.58672,79.10885l26.5,22" fill="none" stroke="#313131" stroke-width="1.5" stroke-linecap="round"/><path d="M218.98672,79.44218l27.5,21.66667" fill="none" stroke="#313131" stroke-width="1.5" stroke-linecap="round"/><path d="M239.05339,80.24218l27.5,20.66667" fill="none" stroke="#313131" stroke-width="1.5" stroke-linecap="round"/><path d="M258.65339,81.10884l25.5,20" fill="none" stroke="#313131" stroke-width="1.5" stroke-linecap="round"/><path d="M277.72006,81.10885l25.83333,20" fill="none" stroke="#313131" stroke-width="1.5" stroke-linecap="round"/><path d="M297.58672,81.24218l25.16667,19.66667" fill="none" stroke="#313131" stroke-width="1.5" stroke-linecap="round"/><path d="M342.15339,100.90885l-25.16667,-20.66667" fill="none" stroke="#313131" stroke-width="1.5" stroke-linecap="round"/><path d="M334.92006,79.77551l24.83333,21.33333" fill="none" stroke="#313131" stroke-width="1.5" stroke-linecap="round"/><path d="M379.15339,101.10885l-27.83333,-23" fill="none" stroke="#313131" stroke-width="1.5" stroke-linecap="round"/><path d="M364.65339,100.90885l17.5,-14.66667" data-paper-data="{&quot;index&quot;:null}" fill="none" stroke="#313131" stroke-width="1.5" stroke-linecap="round"/><path d="M371.75339,77.90885l-27.16667,23" data-paper-data="{&quot;index&quot;:null}" fill="none" stroke="#313131" stroke-width="1.5" stroke-linecap="round"/><path d="M326.98672,101.10884l28.16667,-22.33333" data-paper-data="{&quot;index&quot;:null}" fill="none" stroke="#313131" stroke-width="1.5" stroke-linecap="round"/><path d="M336.08672,79.10885l-28.5,22" data-paper-data="{&quot;index&quot;:null}" fill="none" stroke="#313131" stroke-width="1.5" stroke-linecap="round"/><path d="M288.38671,100.90885l26.83333,-20.66667" data-paper-data="{&quot;index&quot;:null}" fill="none" stroke="#313131" stroke-width="1.5" stroke-linecap="round"/><path d="M295.48672,80.90885l-26.5,20" data-paper-data="{&quot;index&quot;:null}" fill="none" stroke="#313131" stroke-width="1.5" stroke-linecap="round"/><path d="M251.38671,101.10885l25.5,-19.66667" data-paper-data="{&quot;index&quot;:null}" fill="none" stroke="#313131" stroke-width="1.5" stroke-linecap="round"/><path d="M231.98672,101.10885l28.16667,-21" data-paper-data="{&quot;index&quot;:null}" fill="none" stroke="#313131" stroke-width="1.5" stroke-linecap="round"/><path d="M211.92005,100.90885l27.5,-20.66667" data-paper-data="{&quot;index&quot;:null}" fill="none" stroke="#313131" stroke-width="1.5" stroke-linecap="round"/><path d="M222.32005,79.44218l-27.83333,21" data-paper-data="{&quot;index&quot;:null}" fill="none" stroke="#313131" stroke-width="1.5" stroke-linecap="round"/><path d="M174.92005,101.10885l32.5,-22.66667" data-paper-data="{&quot;index&quot;:null}" fill="none" stroke="#313131" stroke-width="1.5" stroke-linecap="round"/><path d="M155.72005,100.90885l33.16667,-23.33333" data-paper-data="{&quot;index&quot;:null}" fill="none" stroke="#313131" stroke-width="1.5" stroke-linecap="round"/><path d="M170.15338,77.57552l-33.83333,23.33333" data-paper-data="{&quot;index&quot;:null}" fill="none" stroke="#313131" stroke-width="1.5" stroke-linecap="round"/><path d="M118.72005,101.10884l32.5,-22.33333" data-paper-data="{&quot;index&quot;:null}" fill="none" stroke="#313131" stroke-width="1.5" stroke-linecap="round"/><path d="M132.48672,78.44218l-33.16667,22.66667" data-paper-data="{&quot;index&quot;:null}" fill="none" stroke="#313131" stroke-width="1.5" stroke-linecap="round"/></g></g></svg>