<svg version="1.1" xmlns="http://www.w3.org/2000/svg" xmlns:xlink="http://www.w3.org/1999/xlink" width="291.93285" height="115.91828" viewBox="0,0,291.93285,115.91828"><defs><radialGradient cx="240.00001" cy="183.78477" r="143" gradientUnits="userSpaceOnUse" id="color-1"><stop offset="0" stop-color="#505050"/><stop offset="1" stop-color="#313131"/></radialGradient></defs><g transform="translate(-94.09608,-74.61649)"><g data-paper-data="{&quot;isPaintingLayer&quot;:true}" fill-rule="nonzero" stroke-linejoin="miter" stroke-miterlimit="10" stroke-dasharray="" stroke-dashoffset="0" style="mix-blend-mode: normal"><path d="M97.00001,190.28477v-13h286v13z" fill="url(#color-1)" stroke="#000000" stroke-width="0.5" stroke-linecap="butt"/><path d="M113.82006,177.04922l-18.5,-14l110.18082,-87.5018" fill="none" stroke="#313131" stroke-width="1.5" stroke-linecap="round"/><path d="M133.88673,177.04923l-37.83333,-30.33333l89.29086,-71.16846" fill="none" stroke="#313131" stroke-width="1.5" stroke-linecap="round"/><path d="M151.48673,177.24921l-55.38449,-46.70339l68.82921,-54.18506" fill="none" stroke="#313131" stroke-width="1.5" stroke-linecap="round"/><path d="M170.88673,177.24923l-74.08657,-61.80815l50.48674,-38.78144" fill="none" stroke="#313131" stroke-width="1.5" stroke-linecap="round"/><path d="M190.08673,177.04923l-94.04477,-79.1445l27.64089,-21.0793" fill="none" stroke="#313131" stroke-width="1.5" stroke-linecap="round"/><path d="M99.66917,77.26581l109.81756,99.78341" fill="none" stroke="#313131" stroke-width="1.5" stroke-linecap="round"/><path d="M120.56445,76.64448l106.52228,100.60473" fill="none" stroke="#313131" stroke-width="1.5" stroke-linecap="round"/><path d="M246.48672,177.24923l-102.46584,-100.87303" fill="none" stroke="#313131" stroke-width="1.5" stroke-linecap="round"/><path d="M165.08323,76.86743l101.47017,100.1818" fill="none" stroke="#313131" stroke-width="1.5" stroke-linecap="round"/><path d="M186.19336,77.13247l97.96004,100.11676" fill="none" stroke="#313131" stroke-width="1.5" stroke-linecap="round"/><path d="M204.95314,76.72922l98.60027,100.51999" fill="none" stroke="#313131" stroke-width="1.5" stroke-linecap="round"/><path d="M224.33669,76.5967l98.41671,100.45253" fill="none" stroke="#313131" stroke-width="1.5" stroke-linecap="round"/><path d="M246.2468,77.08227l95.90659,99.96696" fill="none" stroke="#313131" stroke-width="1.5" stroke-linecap="round"/><path d="M266.61603,77.1859l93.13736,100.06331" fill="none" stroke="#313131" stroke-width="1.5" stroke-linecap="round"/><path d="M379.1534,177.24923l-93.85747,-100.93565" fill="none" stroke="#313131" stroke-width="1.5" stroke-linecap="round"/><path d="M303.76533,76.20492l78.38807,86.17764l-17.5,14.66667" data-paper-data="{&quot;index&quot;:null}" fill="none" stroke="#313131" stroke-width="1.5" stroke-linecap="round"/><path d="M322.57215,76.02139l60.84792,69.69452l-38.83334,31.33333" data-paper-data="{&quot;index&quot;:null}" fill="none" stroke="#313131" stroke-width="1.5" stroke-linecap="round"/><path d="M337.68971,76.36079l47.26155,55.36615l-57.96454,45.52228" data-paper-data="{&quot;index&quot;:null}" fill="none" stroke="#313131" stroke-width="1.5" stroke-linecap="round"/><path d="M351.57382,76.35761l32.97588,39.49909l-76.96297,61.39251" data-paper-data="{&quot;index&quot;:null}" fill="none" stroke="#313131" stroke-width="1.5" stroke-linecap="round"/><path d="M363.41838,77.12745l20.17129,23.54649l-95.20296,76.37526" data-paper-data="{&quot;index&quot;:null}" fill="none" stroke="#313131" stroke-width="1.5" stroke-linecap="round"/><path d="M268.98674,177.04922l115.06912,-95.03819" data-paper-data="{&quot;index&quot;:null}" fill="none" stroke="#313131" stroke-width="1.5" stroke-linecap="round"/><path d="M251.38671,177.24923l121.26185,-100.69193" data-paper-data="{&quot;index&quot;:null}" fill="none" stroke="#313131" stroke-width="1.5" stroke-linecap="round"/><path d="M353.16813,76.59345l-121.18141,100.65575" data-paper-data="{&quot;index&quot;:null}" fill="none" stroke="#313131" stroke-width="1.5" stroke-linecap="round"/><path d="M211.92006,177.04923l121.15199,-101.68274" data-paper-data="{&quot;index&quot;:null}" fill="none" stroke="#313131" stroke-width="1.5" stroke-linecap="round"/><path d="M194.48672,176.58255l117.55712,-100.11244" data-paper-data="{&quot;index&quot;:null}" fill="none" stroke="#313131" stroke-width="1.5" stroke-linecap="round"/><path d="M174.92006,177.2492l119.52338,-100.65818" data-paper-data="{&quot;index&quot;:null}" fill="none" stroke="#313131" stroke-width="1.5" stroke-linecap="round"/><path d="M155.72006,177.04922l121.15874,-100.92647" data-paper-data="{&quot;index&quot;:null}" fill="none" stroke="#313131" stroke-width="1.5" stroke-linecap="round"/><path d="M256.88634,76.69306l-120.56628,100.35616" data-paper-data="{&quot;index&quot;:null}" fill="none" stroke="#313131" stroke-width="1.5" stroke-linecap="round"/><path d="M118.72006,177.24921l122.34039,-101.26224" data-paper-data="{&quot;index&quot;:null}" fill="none" stroke="#313131" stroke-width="1.5" stroke-linecap="round"/><path d="M99.32005,177.24921l123.0605,-100.56857" data-paper-data="{&quot;index&quot;:null}" fill="none" stroke="#313131" stroke-width="1.5" stroke-linecap="round"/></g></g></svg>