<svg version="1.1" xmlns="http://www.w3.org/2000/svg" xmlns:xlink="http://www.w3.org/1999/xlink" width="292.81427" height="152.8671" viewBox="0,0,292.81427,152.8671"><defs><radialGradient cx="240.00001" cy="219.78477" r="143" gradientUnits="userSpaceOnUse" id="color-1"><stop offset="0" stop-color="#505050"/><stop offset="1" stop-color="#313131"/></radialGradient></defs><g transform="translate(-93.25141,-73.66767)"><g data-paper-data="{&quot;isPaintingLayer&quot;:true}" fill-rule="nonzero" stroke-linejoin="miter" stroke-miterlimit="10" stroke-dasharray="" stroke-dashoffset="0" style="mix-blend-mode: normal"><path d="M97.00001,226.28477v-13h286v13z" fill="url(#color-1)" stroke="#000000" stroke-width="0.5" stroke-linecap="butt"/><path d="M113.82006,213.04922l-18.5,-14l141.18082,-124.2518" fill="none" stroke="#313131" stroke-width="1.5" stroke-linecap="round"/><path d="M133.88673,213.04923l-37.83333,-30.33333l120.29086,-107.66846" fill="none" stroke="#313131" stroke-width="1.5" stroke-linecap="round"/><path d="M151.48673,213.24921l-55.38449,-46.70339l101.32921,-91.43506" fill="none" stroke="#313131" stroke-width="1.5" stroke-linecap="round"/><path d="M170.88673,213.24923l-74.08657,-61.80815l83.73674,-75.78144" fill="none" stroke="#313131" stroke-width="1.5" stroke-linecap="round"/><path d="M190.08673,213.04923l-94.04477,-79.1445l67.64089,-59.3293" fill="none" stroke="#313131" stroke-width="1.5" stroke-linecap="round"/><path d="M209.48673,213.04922l-115.06756,-100.53341l45.7475,-36.72414" fill="none" stroke="#313131" stroke-width="1.5" stroke-linecap="round"/><path d="M227.08673,213.24921l-131.52228,-116.10473l25.22633,-21.1869" fill="none" stroke="#313131" stroke-width="1.5" stroke-linecap="round"/><path d="M246.48672,213.24923l-149.46584,-134.37303" fill="none" stroke="#313131" stroke-width="1.5" stroke-linecap="round"/><path d="M266.5534,213.04923l-149.22017,-137.4318" fill="none" stroke="#313131" stroke-width="1.5" stroke-linecap="round"/><path d="M284.1534,213.24923l-145.96004,-137.86676" fill="none" stroke="#313131" stroke-width="1.5" stroke-linecap="round"/><path d="M160.20314,75.47922l143.35027,137.76999" fill="none" stroke="#313131" stroke-width="1.5" stroke-linecap="round"/><path d="M322.7534,213.04923l-143.10258,-136.92309" fill="none" stroke="#313131" stroke-width="1.5" stroke-linecap="round"/><path d="M342.15339,213.04924l-142.58552,-138.49135" fill="none" stroke="#313131" stroke-width="1.5" stroke-linecap="round"/><path d="M220.50481,75.66152l139.24858,137.5877" fill="none" stroke="#313131" stroke-width="1.5" stroke-linecap="round"/><path d="M379.1534,213.24924l-138.21869,-138.83157" fill="none" stroke="#313131" stroke-width="1.5" stroke-linecap="round"/><path d="M263.26176,75.80207l118.89164,122.5805l-17.5,14.66667" data-paper-data="{&quot;index&quot;:null}" fill="none" stroke="#313131" stroke-width="1.5" stroke-linecap="round"/><path d="M280.62241,75.80083l102.79766,105.91508l-38.83334,31.33333" data-paper-data="{&quot;index&quot;:null}" fill="none" stroke="#313131" stroke-width="1.5" stroke-linecap="round"/><path d="M297.1115,76.14023l87.83976,91.58671l-57.96454,45.52228" data-paper-data="{&quot;index&quot;:null}" fill="none" stroke="#313131" stroke-width="1.5" stroke-linecap="round"/><path d="M312.38102,75.70476l72.16868,76.15195l-76.96297,61.39251" data-paper-data="{&quot;index&quot;:null}" fill="none" stroke="#313131" stroke-width="1.5" stroke-linecap="round"/><path d="M327.77246,76.34613l55.81721,60.32782l-95.20296,76.37526" data-paper-data="{&quot;index&quot;:null}" fill="none" stroke="#313131" stroke-width="1.5" stroke-linecap="round"/><path d="M344.72561,75.72215l39.33025,42.28889l-115.06912,95.03819" data-paper-data="{&quot;index&quot;:null}" fill="none" stroke="#313131" stroke-width="1.5" stroke-linecap="round"/><path d="M357.63853,75.02529l26.26003,28.53201l-132.51185,109.69193" data-paper-data="{&quot;index&quot;:null}" fill="none" stroke="#313131" stroke-width="1.5" stroke-linecap="round"/><path d="M383.41813,86.34345l-151.43141,126.90575" data-paper-data="{&quot;index&quot;:null}" fill="none" stroke="#313131" stroke-width="1.5" stroke-linecap="round"/><path d="M376.07205,75.36649l-164.15199,137.68274" data-paper-data="{&quot;index&quot;:null}" fill="none" stroke="#313131" stroke-width="1.5" stroke-linecap="round"/><path d="M194.48672,212.58255l161.05712,-137.11244" data-paper-data="{&quot;index&quot;:null}" fill="none" stroke="#313131" stroke-width="1.5" stroke-linecap="round"/><path d="M174.92006,213.2492l159.27338,-138.40818" data-paper-data="{&quot;index&quot;:null}" fill="none" stroke="#313131" stroke-width="1.5" stroke-linecap="round"/><path d="M313.3788,75.12275l-157.65874,137.92647" data-paper-data="{&quot;index&quot;:null}" fill="none" stroke="#313131" stroke-width="1.5" stroke-linecap="round"/><path d="M295.38634,74.69306l-159.06628,138.35616" data-paper-data="{&quot;index&quot;:null}" fill="none" stroke="#313131" stroke-width="1.5" stroke-linecap="round"/><path d="M276.81045,74.48697l-158.09039,138.76224" data-paper-data="{&quot;index&quot;:null}" fill="none" stroke="#313131" stroke-width="1.5" stroke-linecap="round"/><path d="M256.13055,75.18064l-156.8105,138.06857" data-paper-data="{&quot;index&quot;:null}" fill="none" stroke="#313131" stroke-width="1.5" stroke-linecap="round"/></g></g></svg>