<svg version="1.1" xmlns="http://www.w3.org/2000/svg" xmlns:xlink="http://www.w3.org/1999/xlink" width="308.37917" height="249.02559" viewBox="0,0,308.37917,249.02559"><defs><radialGradient cx="240.00001" cy="316.51948" r="143" gradientUnits="userSpaceOnUse" id="color-1"><stop offset="0" stop-color="#505050"/><stop offset="1" stop-color="#313131"/></radialGradient><linearGradient x1="238.37328" y1="299.77721" x2="238.37328" y2="324.27367" gradientUnits="userSpaceOnUse" id="color-2"><stop offset="0" stop-color="#000000" stop-opacity="0"/><stop offset="1" stop-color="#000000"/></linearGradient><linearGradient x1="238.66242" y1="299.12419" x2="238.66242" y2="323.62064" gradientUnits="userSpaceOnUse" id="color-3"><stop offset="0" stop-color="#000000" stop-opacity="0"/><stop offset="1" stop-color="#000000"/></linearGradient></defs><g transform="translate(-84.32827,-75.24808)"><g data-paper-data="{&quot;isPaintingLayer&quot;:true}" fill-rule="nonzero" stroke-linejoin="miter" stroke-miterlimit="10" stroke-dasharray="" stroke-dashoffset="0" style="mix-blend-mode: normal"><path d="M97.00001,323.01948v-13h286v13z" fill="url(#color-1)" stroke="#000000" stroke-width="0.5" stroke-linecap="butt"/><path d="M113.82006,309.78393l-18.5,-14l250.1551,-218.48694" fill="none" stroke="#313131" stroke-width="1.5" stroke-linecap="round"/><path d="M133.88673,309.78394l-37.83333,-30.33333l231.68678,-203.26372" fill="none" stroke="#313131" stroke-width="1.5" stroke-linecap="round"/><path d="M151.48673,309.98392l-55.38449,-46.70339l214.72499,-186.89724" fill="none" stroke="#313131" stroke-width="1.5" stroke-linecap="round"/><path d="M170.88673,309.98393l-74.08657,-61.80815l195.15238,-171.43212" fill="none" stroke="#313131" stroke-width="1.5" stroke-linecap="round"/><path d="M190.08673,309.78394l-94.04477,-79.1445l175.15159,-154.03229" fill="none" stroke="#313131" stroke-width="1.5" stroke-linecap="round"/><path d="M209.48673,309.78393l-115.06756,-100.53341l154.49101,-132.31628" fill="none" stroke="#313131" stroke-width="1.5" stroke-linecap="round"/><path d="M227.08673,309.98392l-131.52228,-116.10473l132.69351,-117.88111" fill="none" stroke="#313131" stroke-width="1.5" stroke-linecap="round"/><path d="M246.48672,309.98393l-149.46584,-134.37303l111.27522,-98.80897" fill="none" stroke="#313131" stroke-width="1.5" stroke-linecap="round"/><path d="M266.5534,309.78394l-170.35221,-153.28083l90.65822,-79.99293" fill="none" stroke="#313131" stroke-width="1.5" stroke-linecap="round"/><path d="M284.1534,309.98393l-188.59568,-171.00179l70.09431,-61.7802" fill="none" stroke="#313131" stroke-width="1.5" stroke-linecap="round"/><path d="M303.55341,309.98393l-208.02926,-191.53482l49.17224,-42.23977" fill="none" stroke="#313131" stroke-width="1.5" stroke-linecap="round"/><path d="M322.75341,309.78394l-226.037,-212.31978l23.8484,-19.91208" fill="none" stroke="#313131" stroke-width="1.5" stroke-linecap="round"/><path d="M342.15338,309.78396l-244.77786,-231.65419" fill="none" stroke="#313131" stroke-width="1.5" stroke-linecap="round"/><path d="M115.31922,76.79241l244.43416,233.19151" fill="none" stroke="#313131" stroke-width="1.5" stroke-linecap="round"/><path d="M135.23635,76.7647l243.91705,233.21925" fill="none" stroke="#313131" stroke-width="1.5" stroke-linecap="round"/><path d="M157.13112,77.99826l225.02228,217.11902l-17.5,14.66667" data-paper-data="{&quot;index&quot;:null}" fill="none" stroke="#313131" stroke-width="1.5" stroke-linecap="round"/><path d="M176.44682,77.43371l206.97325,201.01689l-38.83334,31.33333" data-paper-data="{&quot;index&quot;:null}" fill="none" stroke="#313131" stroke-width="1.5" stroke-linecap="round"/><path d="M194.07442,77.18049l190.87682,187.28115l-57.96454,45.52228" data-paper-data="{&quot;index&quot;:null}" fill="none" stroke="#313131" stroke-width="1.5" stroke-linecap="round"/><path d="M213.31865,77.35544l171.23104,171.23598l-76.96297,61.39251" data-paper-data="{&quot;index&quot;:null}" fill="none" stroke="#313131" stroke-width="1.5" stroke-linecap="round"/><path d="M230.66068,77.63226l152.92899,155.77639l-95.20296,76.37526" data-paper-data="{&quot;index&quot;:null}" fill="none" stroke="#313131" stroke-width="1.5" stroke-linecap="round"/><path d="M248.50152,77.51254l135.55433,137.2332l-115.06912,95.03819" data-paper-data="{&quot;index&quot;:null}" fill="none" stroke="#313131" stroke-width="1.5" stroke-linecap="round"/><path d="M265.38112,76.43952l118.51744,123.85249l-132.51185,109.69193" data-paper-data="{&quot;index&quot;:null}" fill="none" stroke="#313131" stroke-width="1.5" stroke-linecap="round"/><path d="M283.13881,76.66586l100.27932,106.4123l-151.43141,126.90575" data-paper-data="{&quot;index&quot;:null}" fill="none" stroke="#313131" stroke-width="1.5" stroke-linecap="round"/><path d="M136.32006,309.78393l208.61088,-184.57573l38.82578,40.54479l-171.83666,144.03095" data-paper-data="{&quot;index&quot;:null}" fill="none" stroke="#313131" stroke-width="1.5" stroke-linecap="round"/><path d="M315.66969,76.82298l67.53407,73.56188l-188.71704,158.93238" data-paper-data="{&quot;index&quot;:null}" fill="none" stroke="#313131" stroke-width="1.5" stroke-linecap="round"/><path d="M331.07934,78.00327l52.81527,56.35128l-208.97456,175.62935" data-paper-data="{&quot;index&quot;:null}" fill="none" stroke="#313131" stroke-width="1.5" stroke-linecap="round"/><path d="M347.70468,76.79522l34.88018,38.09085l-226.86479,194.89787" data-paper-data="{&quot;index&quot;:null}" fill="none" stroke="#313131" stroke-width="1.5" stroke-linecap="round"/><path d="M379.40725,77.78704l-260.68721,232.19688" data-paper-data="{&quot;index&quot;:null}" fill="none" stroke="#313131" stroke-width="1.5" stroke-linecap="round"/><path d="M99.32005,309.98392l263.95422,-232.40095" data-paper-data="{&quot;index&quot;:null}" fill="none" stroke="#313131" stroke-width="1.5" stroke-linecap="round"/><path d="M383.80514,164.93735l-82.11242,-87.62768" fill="none" stroke="#313131" stroke-width="1.5" stroke-linecap="round"/><path d="M370.89815,77.21875l12.29418,14.48828l-38.91318,33.70433" fill="none" stroke="#313131" stroke-width="1.5" stroke-linecap="round"/><path d="M84.32827,324.27367v-24.49646h308.09003v24.49646z" fill="url(#color-2)" stroke="#000000" stroke-width="0" stroke-linecap="butt"/><path d="M84.61741,323.62064v-24.49645h308.09003v24.49645z" fill="url(#color-3)" stroke="#000000" stroke-width="0" stroke-linecap="butt"/></g></g></svg>