<svg version="1.1" xmlns="http://www.w3.org/2000/svg" xmlns:xlink="http://www.w3.org/1999/xlink" width="291.95211" height="99.37455" viewBox="0,0,291.95211,99.37455"><defs><radialGradient cx="240.00001" cy="164.74527" r="143" gradientUnits="userSpaceOnUse" id="color-1"><stop offset="0" stop-color="#505050"/><stop offset="1" stop-color="#313131"/></radialGradient></defs><g transform="translate(-94.09837,-72.12072)"><g data-paper-data="{&quot;isPaintingLayer&quot;:true}" fill-rule="nonzero" stroke-linejoin="miter" stroke-miterlimit="10" stroke-dasharray="" stroke-dashoffset="0" style="mix-blend-mode: normal"><path d="M97.00001,171.24527v-13h286v13z" fill="url(#color-1)" stroke="#000000" stroke-width="0.5" stroke-linecap="butt"/><path d="M113.82006,158.00972l-18.5,-14l87.22693,-69.68233" fill="none" stroke="#313131" stroke-width="1.5" stroke-linecap="round"/><path d="M133.88673,158.00973l-37.83333,-30.33333l65.43089,-52.74494" fill="none" stroke="#313131" stroke-width="1.5" stroke-linecap="round"/><path d="M151.48673,158.20971l-55.38449,-46.70339l46.17734,-37.27166" fill="none" stroke="#313131" stroke-width="1.5" stroke-linecap="round"/><path d="M170.88673,158.20973l-74.08657,-61.80815l26.02272,-21.86804" fill="none" stroke="#313131" stroke-width="1.5" stroke-linecap="round"/><path d="M190.08673,158.00973l-94.04477,-79.1445" fill="none" stroke="#313131" stroke-width="1.5" stroke-linecap="round"/><path d="M115.67649,74.23363l93.81024,83.77609" fill="none" stroke="#313131" stroke-width="1.5" stroke-linecap="round"/><path d="M136.26975,74.21635l90.81698,83.99336" fill="none" stroke="#313131" stroke-width="1.5" stroke-linecap="round"/><path d="M158.21605,73.94807l88.27067,84.26166" fill="none" stroke="#313131" stroke-width="1.5" stroke-linecap="round"/><path d="M177.16423,73.83525l89.38917,84.17448" fill="none" stroke="#313131" stroke-width="1.5" stroke-linecap="round"/><path d="M199.78448,73.79827l84.36892,84.41146" fill="none" stroke="#313131" stroke-width="1.5" stroke-linecap="round"/><path d="M220.35641,73.69704l83.197,84.51267" fill="none" stroke="#313131" stroke-width="1.5" stroke-linecap="round"/><path d="M322.7534,158.00973l-83.01344,-84.74723" fill="none" stroke="#313131" stroke-width="1.5" stroke-linecap="round"/><path d="M342.15339,158.00973l-81.10737,-84.56369" fill="none" stroke="#313131" stroke-width="1.5" stroke-linecap="round"/><path d="M359.75339,158.20971l-78.94219,-84.35801" fill="none" stroke="#313131" stroke-width="1.5" stroke-linecap="round"/><path d="M298.88705,72.97938l80.26635,85.23035" fill="none" stroke="#313131" stroke-width="1.5" stroke-linecap="round"/><path d="M316.45038,72.87072l65.70302,70.47234l-17.5,14.66667" data-paper-data="{&quot;index&quot;:null}" fill="none" stroke="#313131" stroke-width="1.5" stroke-linecap="round"/><path d="M335.55922,73.89528l47.86085,52.78112l-38.83334,31.33333" data-paper-data="{&quot;index&quot;:null}" fill="none" stroke="#313131" stroke-width="1.5" stroke-linecap="round"/><path d="M349.77071,74.23468l35.18055,38.45275l-57.96454,45.52228" data-paper-data="{&quot;index&quot;:null}" fill="none" stroke="#313131" stroke-width="1.5" stroke-linecap="round"/><path d="M364.25887,74.53353l20.29083,22.28367l-76.96297,61.39251" data-paper-data="{&quot;index&quot;:null}" fill="none" stroke="#313131" stroke-width="1.5" stroke-linecap="round"/><path d="M383.58967,81.63444l-95.20296,76.37526" data-paper-data="{&quot;index&quot;:null}" fill="none" stroke="#313131" stroke-width="1.5" stroke-linecap="round"/><path d="M268.98674,158.00972l99.66585,-82.65517" data-paper-data="{&quot;index&quot;:null}" fill="none" stroke="#313131" stroke-width="1.5" stroke-linecap="round"/><path d="M251.38671,158.20973l99.21403,-84.08056" data-paper-data="{&quot;index&quot;:null}" fill="none" stroke="#313131" stroke-width="1.5" stroke-linecap="round"/><path d="M231.98672,158.20971l98.22752,-83.44033" data-paper-data="{&quot;index&quot;:null}" fill="none" stroke="#313131" stroke-width="1.5" stroke-linecap="round"/><path d="M211.92006,158.00973l99.40619,-83.86327" data-paper-data="{&quot;index&quot;:null}" fill="none" stroke="#313131" stroke-width="1.5" stroke-linecap="round"/><path d="M291.20412,74.64603l-96.7174,82.89702" data-paper-data="{&quot;index&quot;:null}" fill="none" stroke="#313131" stroke-width="1.5" stroke-linecap="round"/><path d="M272.99967,74.76695l-98.07961,83.44276" data-paper-data="{&quot;index&quot;:null}" fill="none" stroke="#313131" stroke-width="1.5" stroke-linecap="round"/><path d="M256.94515,73.99665l-101.22509,84.01307" data-paper-data="{&quot;index&quot;:null}" fill="none" stroke="#313131" stroke-width="1.5" stroke-linecap="round"/><path d="M136.32006,158.00973l102.74681,-83.74479" data-paper-data="{&quot;index&quot;:null}" fill="none" stroke="#313131" stroke-width="1.5" stroke-linecap="round"/><path d="M118.72006,158.20971l102.40674,-84.34884" data-paper-data="{&quot;index&quot;:null}" fill="none" stroke="#313131" stroke-width="1.5" stroke-linecap="round"/><path d="M201.23881,74.85657l-101.91875,83.35315" data-paper-data="{&quot;index&quot;:null}" fill="none" stroke="#313131" stroke-width="1.5" stroke-linecap="round"/></g></g></svg>