<svg version="1.1" xmlns="http://www.w3.org/2000/svg" xmlns:xlink="http://www.w3.org/1999/xlink" width="292.84541" height="135.01338" viewBox="0,0,292.84541,135.01338"><defs><radialGradient cx="240.00001" cy="200.78477" r="143" gradientUnits="userSpaceOnUse" id="color-1"><stop offset="0" stop-color="#505050"/><stop offset="1" stop-color="#313131"/></radialGradient></defs><g transform="translate(-93.20293,-72.52139)"><g data-paper-data="{&quot;isPaintingLayer&quot;:true}" fill-rule="nonzero" stroke-linejoin="miter" stroke-miterlimit="10" stroke-dasharray="" stroke-dashoffset="0" style="mix-blend-mode: normal"><path d="M97.00001,207.28477v-13h286v13z" fill="url(#color-1)" stroke="#000000" stroke-width="0.5" stroke-linecap="butt"/><path d="M113.82006,194.04922l-18.5,-14l133.18082,-105.5018" fill="none" stroke="#313131" stroke-width="1.5" stroke-linecap="round"/><path d="M133.88673,194.04923l-37.83333,-30.33333l113.29086,-89.41846" fill="none" stroke="#313131" stroke-width="1.5" stroke-linecap="round"/><path d="M151.48673,194.24921l-55.38449,-46.70339l92.82921,-73.43506" fill="none" stroke="#313131" stroke-width="1.5" stroke-linecap="round"/><path d="M170.88673,194.24923l-74.08657,-61.80815l73.48674,-57.78144" fill="none" stroke="#313131" stroke-width="1.5" stroke-linecap="round"/><path d="M190.08673,194.04923l-94.04477,-79.1445l54.64089,-40.3293" fill="none" stroke="#313131" stroke-width="1.5" stroke-linecap="round"/><path d="M209.48673,194.04922l-115.06756,-100.53341l27.83083,-19.39081" fill="none" stroke="#313131" stroke-width="1.5" stroke-linecap="round"/><path d="M95.56445,78.14448l131.52228,116.10473" fill="none" stroke="#313131" stroke-width="1.5" stroke-linecap="round"/><path d="M114.52088,74.3762l131.96584,119.87303" fill="none" stroke="#313131" stroke-width="1.5" stroke-linecap="round"/><path d="M136.08323,73.86743l130.47017,120.1818" fill="none" stroke="#313131" stroke-width="1.5" stroke-linecap="round"/><path d="M159.44336,74.63247l124.71004,119.61676" fill="none" stroke="#313131" stroke-width="1.5" stroke-linecap="round"/><path d="M303.55341,194.24921l-122.35027,-120.51999" fill="none" stroke="#313131" stroke-width="1.5" stroke-linecap="round"/><path d="M322.7534,194.04923l-120.41671,-120.45253" fill="none" stroke="#313131" stroke-width="1.5" stroke-linecap="round"/><path d="M223.4968,73.58227l118.65659,120.46696" fill="none" stroke="#313131" stroke-width="1.5" stroke-linecap="round"/><path d="M245.36603,74.6859l114.38736,119.56331" fill="none" stroke="#313131" stroke-width="1.5" stroke-linecap="round"/><path d="M379.1534,194.24923l-113.35747,-120.18565" fill="none" stroke="#313131" stroke-width="1.5" stroke-linecap="round"/><path d="M285.01533,74.20492l97.13807,105.17764l-17.5,14.66667" data-paper-data="{&quot;index&quot;:null}" fill="none" stroke="#313131" stroke-width="1.5" stroke-linecap="round"/><path d="M300.82215,73.27139l82.59792,89.44452l-38.83334,31.33333" data-paper-data="{&quot;index&quot;:null}" fill="none" stroke="#313131" stroke-width="1.5" stroke-linecap="round"/><path d="M316.68971,73.61079l68.26155,75.11615l-57.96454,45.52228" data-paper-data="{&quot;index&quot;:null}" fill="none" stroke="#313131" stroke-width="1.5" stroke-linecap="round"/><path d="M333.82382,74.10761l50.72588,58.74909l-76.96297,61.39251" data-paper-data="{&quot;index&quot;:null}" fill="none" stroke="#313131" stroke-width="1.5" stroke-linecap="round"/><path d="M346.41838,74.12745l37.17129,43.54649l-95.20296,76.37526" data-paper-data="{&quot;index&quot;:null}" fill="none" stroke="#313131" stroke-width="1.5" stroke-linecap="round"/><path d="M362.75,74.125l21.30586,24.88603l-115.06912,95.03819" data-paper-data="{&quot;index&quot;:null}" fill="none" stroke="#313131" stroke-width="1.5" stroke-linecap="round"/><path d="M251.38671,194.24923l132.51185,-109.69193" data-paper-data="{&quot;index&quot;:null}" fill="none" stroke="#313131" stroke-width="1.5" stroke-linecap="round"/><path d="M375.41813,74.34345l-143.43141,119.90575" data-paper-data="{&quot;index&quot;:null}" fill="none" stroke="#313131" stroke-width="1.5" stroke-linecap="round"/><path d="M211.92006,194.04923l144.90199,-119.68274" data-paper-data="{&quot;index&quot;:null}" fill="none" stroke="#313131" stroke-width="1.5" stroke-linecap="round"/><path d="M194.48672,193.58255l141.05712,-119.36244" data-paper-data="{&quot;index&quot;:null}" fill="none" stroke="#313131" stroke-width="1.5" stroke-linecap="round"/><path d="M174.92006,194.2492l141.02338,-119.65818" data-paper-data="{&quot;index&quot;:null}" fill="none" stroke="#313131" stroke-width="1.5" stroke-linecap="round"/><path d="M155.72006,194.04922l143.65874,-119.67647" data-paper-data="{&quot;index&quot;:null}" fill="none" stroke="#313131" stroke-width="1.5" stroke-linecap="round"/><path d="M282.13634,73.69306l-145.81628,120.35616" data-paper-data="{&quot;index&quot;:null}" fill="none" stroke="#313131" stroke-width="1.5" stroke-linecap="round"/><path d="M118.72006,194.24921l145.59039,-120.01224" data-paper-data="{&quot;index&quot;:null}" fill="none" stroke="#313131" stroke-width="1.5" stroke-linecap="round"/><path d="M247.38055,74.43064l-148.0605,119.81857" data-paper-data="{&quot;index&quot;:null}" fill="none" stroke="#313131" stroke-width="1.5" stroke-linecap="round"/></g></g></svg>