<svg version="1.1" xmlns="http://www.w3.org/2000/svg" xmlns:xlink="http://www.w3.org/1999/xlink" width="289.33334" height="28.23555" viewBox="0,0,289.33334,28.23555"><defs><radialGradient cx="240" cy="98" r="143" gradientUnits="userSpaceOnUse" id="color-1"><stop offset="0" stop-color="#505050"/><stop offset="1" stop-color="#313131"/></radialGradient></defs><g transform="translate(-94.57005,-76.51445)"><g data-paper-data="{&quot;isPaintingLayer&quot;:true}" fill-rule="nonzero" stroke-linejoin="miter" stroke-miterlimit="10" stroke-dasharray="" stroke-dashoffset="0" style="mix-blend-mode: normal"><path d="M97,104.5v-13h286v13z" fill="url(#color-1)" stroke="#000000" stroke-width="0.5" stroke-linecap="butt"/><path d="M95.32005,77.26445l18.5,14" fill="none" stroke="#313131" stroke-width="1.5" stroke-linecap="round"/><path d="M115.38672,77.26446l18.5,14" fill="none" stroke="#313131" stroke-width="1.5" stroke-linecap="round"/><path d="M151.48672,91.46446l-18.5,-14" fill="none" stroke="#313131" stroke-width="1.5" stroke-linecap="round"/><path d="M152.38672,77.46446l18.5,14" fill="none" stroke="#313131" stroke-width="1.5" stroke-linecap="round"/><path d="M171.58672,77.26446l18.5,14" fill="none" stroke="#313131" stroke-width="1.5" stroke-linecap="round"/><path d="M190.98672,77.26446l18.5,14" fill="none" stroke="#313131" stroke-width="1.5" stroke-linecap="round"/><path d="M208.58672,77.46446l18.5,14" fill="none" stroke="#313131" stroke-width="1.5" stroke-linecap="round"/><path d="M246.48672,91.46446l-18.5,-14" fill="none" stroke="#313131" stroke-width="1.5" stroke-linecap="round"/><path d="M248.05339,77.26446l18.5,14" fill="none" stroke="#313131" stroke-width="1.5" stroke-linecap="round"/><path d="M265.65339,77.46446l18.5,14" fill="none" stroke="#313131" stroke-width="1.5" stroke-linecap="round"/><path d="M285.05339,77.46446l18.5,14" fill="none" stroke="#313131" stroke-width="1.5" stroke-linecap="round"/><path d="M304.25339,77.26446l18.5,14" fill="none" stroke="#313131" stroke-width="1.5" stroke-linecap="round"/><path d="M323.65339,77.26446l18.5,14" fill="none" stroke="#313131" stroke-width="1.5" stroke-linecap="round"/><path d="M359.75339,91.46446l-18.5,-14" fill="none" stroke="#313131" stroke-width="1.5" stroke-linecap="round"/><path d="M360.65339,77.46446l18.5,14" fill="none" stroke="#313131" stroke-width="1.5" stroke-linecap="round"/><path d="M364.65339,91.26446l18.5,-14" data-paper-data="{&quot;index&quot;:null}" fill="none" stroke="#313131" stroke-width="1.5" stroke-linecap="round"/><path d="M344.58672,91.26446l18.5,-14" data-paper-data="{&quot;index&quot;:null}" fill="none" stroke="#313131" stroke-width="1.5" stroke-linecap="round"/><path d="M326.98672,91.46446l18.5,-14" data-paper-data="{&quot;index&quot;:null}" fill="none" stroke="#313131" stroke-width="1.5" stroke-linecap="round"/><path d="M326.08672,77.46446l-18.5,14" data-paper-data="{&quot;index&quot;:null}" fill="none" stroke="#313131" stroke-width="1.5" stroke-linecap="round"/><path d="M288.38671,91.26446l18.5,-14" data-paper-data="{&quot;index&quot;:null}" fill="none" stroke="#313131" stroke-width="1.5" stroke-linecap="round"/><path d="M287.48672,77.26446l-18.5,14" data-paper-data="{&quot;index&quot;:null}" fill="none" stroke="#313131" stroke-width="1.5" stroke-linecap="round"/><path d="M269.88671,77.46446l-18.5,14" data-paper-data="{&quot;index&quot;:null}" fill="none" stroke="#313131" stroke-width="1.5" stroke-linecap="round"/><path d="M250.48672,77.46446l-18.5,14" data-paper-data="{&quot;index&quot;:null}" fill="none" stroke="#313131" stroke-width="1.5" stroke-linecap="round"/><path d="M230.42005,77.26446l-18.5,14" data-paper-data="{&quot;index&quot;:null}" fill="none" stroke="#313131" stroke-width="1.5" stroke-linecap="round"/><path d="M194.32005,91.46446l18.5,-14" data-paper-data="{&quot;index&quot;:null}" fill="none" stroke="#313131" stroke-width="1.5" stroke-linecap="round"/><path d="M174.92005,91.46446l18.5,-14" data-paper-data="{&quot;index&quot;:null}" fill="none" stroke="#313131" stroke-width="1.5" stroke-linecap="round"/><path d="M155.72005,91.26446l18.5,-14" data-paper-data="{&quot;index&quot;:null}" fill="none" stroke="#313131" stroke-width="1.5" stroke-linecap="round"/><path d="M154.82005,77.26446l-18.5,14" data-paper-data="{&quot;index&quot;:null}" fill="none" stroke="#313131" stroke-width="1.5" stroke-linecap="round"/><path d="M137.22005,77.46446l-18.5,14" data-paper-data="{&quot;index&quot;:null}" fill="none" stroke="#313131" stroke-width="1.5" stroke-linecap="round"/><path d="M117.82005,77.46446l-18.5,14" data-paper-data="{&quot;index&quot;:null}" fill="none" stroke="#313131" stroke-width="1.5" stroke-linecap="round"/></g></g></svg>