<svg version="1.1" xmlns="http://www.w3.org/2000/svg" xmlns:xlink="http://www.w3.org/1999/xlink" width="291.64757" height="71.668" viewBox="0,0,291.64757,71.668"><defs><radialGradient cx="240" cy="136.59574" r="143" gradientUnits="userSpaceOnUse" id="color-1"><stop offset="0" stop-color="#505050"/><stop offset="1" stop-color="#313131"/></radialGradient></defs><g transform="translate(-94.0537,-71.67774)"><g data-paper-data="{&quot;isPaintingLayer&quot;:true}" fill-rule="nonzero" stroke-linejoin="miter" stroke-miterlimit="10" stroke-dasharray="" stroke-dashoffset="0" style="mix-blend-mode: normal"><path d="M97,143.09574v-13h286v13z" fill="url(#color-1)" stroke="#000000" stroke-width="0.5" stroke-linecap="butt"/><path d="M113.82005,129.86019l-18.5,-14l57.02443,-40.68793" fill="none" stroke="#313131" stroke-width="1.5" stroke-linecap="round"/><path d="M133.88672,129.8602l-37.83333,-30.33333l34.92637,-24.3546" fill="none" stroke="#313131" stroke-width="1.5" stroke-linecap="round"/><path d="M96.10223,83.35681l55.38449,46.70339" fill="none" stroke="#313131" stroke-width="1.5" stroke-linecap="round"/><path d="M107.37103,76.40672l63.51569,53.65348" fill="none" stroke="#313131" stroke-width="1.5" stroke-linecap="round"/><path d="M190.08672,129.8602l-62.03013,-53.47238" fill="none" stroke="#313131" stroke-width="1.5" stroke-linecap="round"/><path d="M146.181,74.47445l63.30572,55.38575" fill="none" stroke="#313131" stroke-width="1.5" stroke-linecap="round"/><path d="M164.96211,73.5511l62.12461,56.5091" fill="none" stroke="#313131" stroke-width="1.5" stroke-linecap="round"/><path d="M186.30436,74.18889l60.18236,55.87132" fill="none" stroke="#313131" stroke-width="1.5" stroke-linecap="round"/><path d="M266.55339,129.8602l-60.6968,-56.69021" fill="none" stroke="#313131" stroke-width="1.5" stroke-linecap="round"/><path d="M225.45659,74.34111l58.6968,55.71909" fill="none" stroke="#313131" stroke-width="1.5" stroke-linecap="round"/><path d="M243.91434,72.42774l59.63905,57.63246" fill="none" stroke="#313131" stroke-width="1.5" stroke-linecap="round"/><path d="M322.75339,129.8602l-59.15348,-56.35688" fill="none" stroke="#313131" stroke-width="1.5" stroke-linecap="round"/><path d="M342.15339,129.8602l-58.15348,-55.87132" fill="none" stroke="#313131" stroke-width="1.5" stroke-linecap="round"/><path d="M299.83877,72.88442l59.91462,57.17576" fill="none" stroke="#313131" stroke-width="1.5" stroke-linecap="round"/><path d="M379.15339,130.06021l-59.12461,-56.53798" fill="none" stroke="#313131" stroke-width="1.5" stroke-linecap="round"/><path d="M338.80021,73.71559l43.35318,41.47795l-17.5,14.66667" data-paper-data="{&quot;index&quot;:null}" fill="none" stroke="#313131" stroke-width="1.5" stroke-linecap="round"/><path d="M355.79488,73.23002l27.62518,25.29685l-38.83334,31.33333" data-paper-data="{&quot;index&quot;:null}" fill="none" stroke="#313131" stroke-width="1.5" stroke-linecap="round"/><path d="M326.98672,130.06019l57.96454,-45.52228" data-paper-data="{&quot;index&quot;:null}" fill="none" stroke="#313131" stroke-width="1.5" stroke-linecap="round"/><path d="M378.5092,75.31223l-70.92247,54.74796" data-paper-data="{&quot;index&quot;:null}" fill="none" stroke="#313131" stroke-width="1.5" stroke-linecap="round"/><path d="M288.38671,129.86019l70.43691,-55.23352" data-paper-data="{&quot;index&quot;:null}" fill="none" stroke="#313131" stroke-width="1.5" stroke-linecap="round"/><path d="M338.14806,75.29334l-69.16133,54.56685" data-paper-data="{&quot;index&quot;:null}" fill="none" stroke="#313131" stroke-width="1.5" stroke-linecap="round"/><path d="M251.38671,130.0602l69.31356,-55.69021" data-paper-data="{&quot;index&quot;:null}" fill="none" stroke="#313131" stroke-width="1.5" stroke-linecap="round"/><path d="M303.93807,75.31223l-71.95135,54.74796" data-paper-data="{&quot;index&quot;:null}" fill="none" stroke="#313131" stroke-width="1.5" stroke-linecap="round"/><path d="M211.92005,129.8602l72.82799,-54.56685" data-paper-data="{&quot;index&quot;:null}" fill="none" stroke="#313131" stroke-width="1.5" stroke-linecap="round"/><path d="M194.48672,129.39353l71.95135,-54.20465" data-paper-data="{&quot;index&quot;:null}" fill="none" stroke="#313131" stroke-width="1.5" stroke-linecap="round"/><path d="M174.92005,130.0602l73.31356,-55.05242" data-paper-data="{&quot;index&quot;:null}" fill="none" stroke="#313131" stroke-width="1.5" stroke-linecap="round"/><path d="M155.72005,129.86019l74.6469,-54.41462" data-paper-data="{&quot;index&quot;:null}" fill="none" stroke="#313131" stroke-width="1.5" stroke-linecap="round"/><path d="M136.32005,129.8602l77.07469,-55.05242" data-paper-data="{&quot;index&quot;:null}" fill="none" stroke="#313131" stroke-width="1.5" stroke-linecap="round"/><path d="M193.64253,75.00777l-74.92247,55.05242" data-paper-data="{&quot;index&quot;:null}" fill="none" stroke="#313131" stroke-width="1.5" stroke-linecap="round"/><path d="M99.32005,130.06019l74.13246,-55.56685" data-paper-data="{&quot;index&quot;:null}" fill="none" stroke="#313131" stroke-width="1.5" stroke-linecap="round"/></g></g></svg>