<svg version="1.1" xmlns="http://www.w3.org/2000/svg" xmlns:xlink="http://www.w3.org/1999/xlink" width="308.37918" height="237.55449" viewBox="0,0,308.37918,237.55449"><defs><radialGradient cx="240.00001" cy="301.51948" r="143" gradientUnits="userSpaceOnUse" id="color-1"><stop offset="0" stop-color="#505050"/><stop offset="1" stop-color="#313131"/></radialGradient><linearGradient x1="238.37328" y1="285.64464" x2="238.37328" y2="310.1411" gradientUnits="userSpaceOnUse" id="color-2"><stop offset="0" stop-color="#000000" stop-opacity="0"/><stop offset="1" stop-color="#000000"/></linearGradient><linearGradient x1="238.66243" y1="284.99161" x2="238.66243" y2="309.48807" gradientUnits="userSpaceOnUse" id="color-3"><stop offset="0" stop-color="#000000" stop-opacity="0"/><stop offset="1" stop-color="#000000"/></linearGradient></defs><g transform="translate(-84.32826,-72.58661)"><g data-paper-data="{&quot;isPaintingLayer&quot;:true}" fill-rule="nonzero" stroke-linejoin="miter" stroke-miterlimit="10" stroke-dasharray="" stroke-dashoffset="0" style="mix-blend-mode: normal"><path d="M97.00001,308.01948v-13h286v13z" fill="url(#color-1)" stroke="#000000" stroke-width="0.5" stroke-linecap="butt"/><path d="M113.82006,294.78393l-18.5,-14l234.1551,-205.82028" fill="none" stroke="#313131" stroke-width="1.5" stroke-linecap="round"/><path d="M133.88673,294.78394l-37.83333,-30.33333l217.35344,-190.59706" fill="none" stroke="#313131" stroke-width="1.5" stroke-linecap="round"/><path d="M151.48673,294.98392l-55.38449,-46.70339l200.05832,-173.89724" fill="none" stroke="#313131" stroke-width="1.5" stroke-linecap="round"/><path d="M170.88673,294.98393l-74.08657,-61.80815l180.81905,-158.76546" fill="none" stroke="#313131" stroke-width="1.5" stroke-linecap="round"/><path d="M190.08673,294.78394l-94.04477,-79.1445l160.48492,-141.03229" fill="none" stroke="#313131" stroke-width="1.5" stroke-linecap="round"/><path d="M209.48673,294.78393l-115.06756,-100.53341l139.49101,-119.98294" fill="none" stroke="#313131" stroke-width="1.5" stroke-linecap="round"/><path d="M227.08673,294.98392l-131.52228,-116.10473l118.69351,-104.21445" fill="none" stroke="#313131" stroke-width="1.5" stroke-linecap="round"/><path d="M246.48672,294.98393l-149.46584,-134.37303l97.27522,-85.47564" fill="none" stroke="#313131" stroke-width="1.5" stroke-linecap="round"/><path d="M266.5534,294.78394l-170.35221,-153.28083l77.32488,-66.99293" fill="none" stroke="#313131" stroke-width="1.5" stroke-linecap="round"/><path d="M284.1534,294.98393l-188.59568,-171.00179l57.76098,-49.11353" fill="none" stroke="#313131" stroke-width="1.5" stroke-linecap="round"/><path d="M303.55341,294.98393l-208.02926,-191.53482l35.50557,-29.5731" fill="none" stroke="#313131" stroke-width="1.5" stroke-linecap="round"/><path d="M96.71641,82.46416l226.037,212.31978" fill="none" stroke="#313131" stroke-width="1.5" stroke-linecap="round"/><path d="M342.15338,294.78396l-233.44453,-220.32086" fill="none" stroke="#313131" stroke-width="1.5" stroke-linecap="round"/><path d="M128.98589,74.45908l230.7675,220.52485" fill="none" stroke="#313131" stroke-width="1.5" stroke-linecap="round"/><path d="M379.1534,294.98395l-228.25039,-220.55259" fill="none" stroke="#313131" stroke-width="1.5" stroke-linecap="round"/><path d="M169.46445,74.3316l212.68895,205.78568l-17.5,14.66667" data-paper-data="{&quot;index&quot;:null}" fill="none" stroke="#313131" stroke-width="1.5" stroke-linecap="round"/><path d="M187.78015,74.10038l195.63992,189.35023l-38.83334,31.33333" data-paper-data="{&quot;index&quot;:null}" fill="none" stroke="#313131" stroke-width="1.5" stroke-linecap="round"/><path d="M205.74109,73.84716l179.21016,175.61449l-57.96454,45.52228" data-paper-data="{&quot;index&quot;:null}" fill="none" stroke="#313131" stroke-width="1.5" stroke-linecap="round"/><path d="M224.31865,74.02211l160.23104,159.56931l-76.96297,61.39251" data-paper-data="{&quot;index&quot;:null}" fill="none" stroke="#313131" stroke-width="1.5" stroke-linecap="round"/><path d="M242.32735,73.63226l141.26233,144.77639l-95.20296,76.37526" data-paper-data="{&quot;index&quot;:null}" fill="none" stroke="#313131" stroke-width="1.5" stroke-linecap="round"/><path d="M261.50152,74.17921l122.55433,125.56653l-115.06912,95.03819" data-paper-data="{&quot;index&quot;:null}" fill="none" stroke="#313131" stroke-width="1.5" stroke-linecap="round"/><path d="M278.71445,74.77286l105.18411,110.51916l-132.51185,109.69193" data-paper-data="{&quot;index&quot;:null}" fill="none" stroke="#313131" stroke-width="1.5" stroke-linecap="round"/><path d="M296.13881,74.33253l87.27932,93.74563l-151.43141,126.90575" data-paper-data="{&quot;index&quot;:null}" fill="none" stroke="#313131" stroke-width="1.5" stroke-linecap="round"/><path d="M136.32006,294.78393l208.61088,-184.57573l38.82578,40.54479l-171.83666,144.03095" data-paper-data="{&quot;index&quot;:null}" fill="none" stroke="#313131" stroke-width="1.5" stroke-linecap="round"/><path d="M326.66969,74.15632l56.53407,61.22855l-188.71704,158.93238" data-paper-data="{&quot;index&quot;:null}" fill="none" stroke="#313131" stroke-width="1.5" stroke-linecap="round"/><path d="M342.07934,73.33661l41.81527,46.01795l-208.97456,175.62935" data-paper-data="{&quot;index&quot;:null}" fill="none" stroke="#313131" stroke-width="1.5" stroke-linecap="round"/><path d="M359.37135,74.79521l23.21351,25.09085l-226.86479,194.89787" data-paper-data="{&quot;index&quot;:null}" fill="none" stroke="#313131" stroke-width="1.5" stroke-linecap="round"/><path d="M365.74058,75.45371l-247.02054,219.53021" data-paper-data="{&quot;index&quot;:null}" fill="none" stroke="#313131" stroke-width="1.5" stroke-linecap="round"/><path d="M99.32005,294.98392l248.62088,-220.73429" data-paper-data="{&quot;index&quot;:null}" fill="none" stroke="#313131" stroke-width="1.5" stroke-linecap="round"/><path d="M383.80514,149.93735l-70.77909,-76.29435" fill="none" stroke="#313131" stroke-width="1.5" stroke-linecap="round"/><path d="M344.27915,110.41136l38.91318,-33.70433" fill="none" stroke="#313131" stroke-width="1.5" stroke-linecap="round"/><path d="M84.32827,310.1411v-24.49645h308.09003v24.49645z" fill="url(#color-2)" stroke="#000000" stroke-width="0" stroke-linecap="butt"/><path d="M84.61741,309.48807v-24.49645h308.09003v24.49645z" fill="url(#color-3)" stroke="#000000" stroke-width="0" stroke-linecap="butt"/></g></g></svg>