<svg version="1.1" xmlns="http://www.w3.org/2000/svg" xmlns:xlink="http://www.w3.org/1999/xlink" width="308.37918" height="211.25168" viewBox="0,0,308.37918,211.25168"><defs><radialGradient cx="240.00001" cy="260.90127" r="143" gradientUnits="userSpaceOnUse" id="color-1"><stop offset="0" stop-color="#505050"/><stop offset="1" stop-color="#313131"/></radialGradient><linearGradient x1="240.25762" y1="259.26385" x2="240.25762" y2="283.7603" gradientUnits="userSpaceOnUse" id="color-2"><stop offset="0" stop-color="#000000" stop-opacity="0"/><stop offset="1" stop-color="#000000"/></linearGradient><linearGradient x1="240.54677" y1="258.61082" x2="240.54677" y2="283.10727" gradientUnits="userSpaceOnUse" id="color-3"><stop offset="0" stop-color="#000000" stop-opacity="0"/><stop offset="1" stop-color="#000000"/></linearGradient></defs><g transform="translate(-86.21261,-72.50862)"><g data-paper-data="{&quot;isPaintingLayer&quot;:true}" fill-rule="nonzero" stroke-linejoin="miter" stroke-miterlimit="10" stroke-dasharray="" stroke-dashoffset="0" style="mix-blend-mode: normal"><path d="M97.00001,267.40127v-13h286v13z" fill="url(#color-1)" stroke="#000000" stroke-width="0.5" stroke-linecap="butt"/><path d="M113.82006,254.16572l-18.5,-14l181.45378,-166.9071" fill="none" stroke="#313131" stroke-width="1.5" stroke-linecap="round"/><path d="M133.88673,254.16573l-37.83333,-30.33333l159.74968,-149.53906" fill="none" stroke="#313131" stroke-width="1.5" stroke-linecap="round"/><path d="M151.48673,254.36571l-55.38449,-46.70339l140.00333,-133.14564" fill="none" stroke="#313131" stroke-width="1.5" stroke-linecap="round"/><path d="M170.88673,254.36573l-74.08657,-61.80815l121.98968,-118.32027" fill="none" stroke="#313131" stroke-width="1.5" stroke-linecap="round"/><path d="M190.08673,254.16573l-94.04477,-79.1445l104.10677,-101.1999" fill="none" stroke="#313131" stroke-width="1.5" stroke-linecap="round"/><path d="M209.48673,254.16572l-115.06756,-100.53341l83.41927,-79.84415" fill="none" stroke="#313131" stroke-width="1.5" stroke-linecap="round"/><path d="M227.08673,254.36571l-131.52228,-116.10473l65.9922,-63.76925" fill="none" stroke="#313131" stroke-width="1.5" stroke-linecap="round"/><path d="M246.48672,254.36573l-149.46584,-134.37303l47.33153,-46.25605" fill="none" stroke="#313131" stroke-width="1.5" stroke-linecap="round"/><path d="M266.5534,254.16573l-170.35221,-153.28083l27.99399,-26.85414" fill="none" stroke="#313131" stroke-width="1.5" stroke-linecap="round"/><path d="M95.55772,83.36394l188.59568,171.00179" fill="none" stroke="#313131" stroke-width="1.5" stroke-linecap="round"/><path d="M303.55342,254.36572l-198.02926,-180.53482" fill="none" stroke="#313131" stroke-width="1.5" stroke-linecap="round"/><path d="M322.75341,254.16574l-196.53851,-180.28927" fill="none" stroke="#313131" stroke-width="1.5" stroke-linecap="round"/><path d="M144.7597,73.84187l197.39368,180.32388" fill="none" stroke="#313131" stroke-width="1.5" stroke-linecap="round"/><path d="M165.67647,74.86479l194.07692,179.50093" fill="none" stroke="#313131" stroke-width="1.5" stroke-linecap="round"/><path d="M379.1534,254.36574l-193.31744,-179.50174" fill="none" stroke="#313131" stroke-width="1.5" stroke-linecap="round"/><path d="M205.67688,74.40398l176.47652,165.09509l-17.5,14.66667" data-paper-data="{&quot;index&quot;:null}" fill="none" stroke="#313131" stroke-width="1.5" stroke-linecap="round"/><path d="M226.5246,74.09197l156.89547,148.74043l-38.83334,31.33333" data-paper-data="{&quot;index&quot;:null}" fill="none" stroke="#313131" stroke-width="1.5" stroke-linecap="round"/><path d="M244.37781,74.45155l140.57344,134.39189l-57.96454,45.52228" data-paper-data="{&quot;index&quot;:null}" fill="none" stroke="#313131" stroke-width="1.5" stroke-linecap="round"/><path d="M261.18098,74.34703l123.36871,118.62619l-76.96297,61.39251" data-paper-data="{&quot;index&quot;:null}" fill="none" stroke="#313131" stroke-width="1.5" stroke-linecap="round"/><path d="M276.80249,74.59692l106.78719,103.19352l-95.20296,76.37526" data-paper-data="{&quot;index&quot;:null}" fill="none" stroke="#313131" stroke-width="1.5" stroke-linecap="round"/><path d="M296.43146,74.92542l87.62439,84.20212l-115.06912,95.03819" data-paper-data="{&quot;index&quot;:null}" fill="none" stroke="#313131" stroke-width="1.5" stroke-linecap="round"/><path d="M311.49957,74.59986l72.39899,70.07395l-132.51185,109.69193" data-paper-data="{&quot;index&quot;:null}" fill="none" stroke="#313131" stroke-width="1.5" stroke-linecap="round"/><path d="M328.00472,73.85312l55.41341,53.60683l-151.43141,126.90575" data-paper-data="{&quot;index&quot;:null}" fill="none" stroke="#313131" stroke-width="1.5" stroke-linecap="round"/><path d="M136.32006,254.16572l207.99807,-179.97969l39.43859,35.94875l-171.83666,144.03095" data-paper-data="{&quot;index&quot;:null}" fill="none" stroke="#313131" stroke-width="1.5" stroke-linecap="round"/><path d="M362.51884,74.90253l20.68492,19.86414l-188.71704,158.93238" data-paper-data="{&quot;index&quot;:null}" fill="none" stroke="#313131" stroke-width="1.5" stroke-linecap="round"/><path d="M383.89462,78.73635l-208.97456,175.62935" data-paper-data="{&quot;index&quot;:null}" fill="none" stroke="#313131" stroke-width="1.5" stroke-linecap="round"/><path d="M367.26471,74.28161l-211.54464,179.88412" data-paper-data="{&quot;index&quot;:null}" fill="none" stroke="#313131" stroke-width="1.5" stroke-linecap="round"/><path d="M321.00575,73.44229l-202.2857,180.92343" data-paper-data="{&quot;index&quot;:null}" fill="none" stroke="#313131" stroke-width="1.5" stroke-linecap="round"/><path d="M99.32005,254.36571l199.59639,-179.98269" data-paper-data="{&quot;index&quot;:null}" fill="none" stroke="#313131" stroke-width="1.5" stroke-linecap="round"/><path d="M86.21261,283.7603v-24.49645h308.09003v24.49645z" fill="url(#color-2)" stroke="#000000" stroke-width="0" stroke-linecap="butt"/><path d="M86.50175,283.10727v-24.49645h308.09003v24.49645z" fill="url(#color-3)" stroke="#000000" stroke-width="0" stroke-linecap="butt"/></g></g></svg>