<svg version="1.1" xmlns="http://www.w3.org/2000/svg" xmlns:xlink="http://www.w3.org/1999/xlink" width="292.77394" height="171.21863" viewBox="0,0,292.77394,171.21863"><defs><radialGradient cx="240.00001" cy="237.82015" r="143" gradientUnits="userSpaceOnUse" id="color-1"><stop offset="0" stop-color="#505050"/><stop offset="1" stop-color="#313131"/></radialGradient></defs><g transform="translate(-93.28264,-73.35152)"><g data-paper-data="{&quot;isPaintingLayer&quot;:true}" fill-rule="nonzero" stroke-linejoin="miter" stroke-miterlimit="10" stroke-dasharray="" stroke-dashoffset="0" style="mix-blend-mode: normal"><path d="M97.00001,244.32015v-13h286v13z" fill="url(#color-1)" stroke="#000000" stroke-width="0.5" stroke-linecap="butt"/><path d="M113.82006,231.0846l-18.5,-14l155.88193,-141.62584" fill="none" stroke="#313131" stroke-width="1.5" stroke-linecap="round"/><path d="M133.88673,231.08461l-37.83333,-30.33333l137.6649,-125.71074" fill="none" stroke="#313131" stroke-width="1.5" stroke-linecap="round"/><path d="M151.48673,231.28459l-55.38449,-46.70339l119.37149,-110.47968" fill="none" stroke="#313131" stroke-width="1.5" stroke-linecap="round"/><path d="M170.88673,231.28461l-74.08657,-61.80815l100.77667,-94.49195" fill="none" stroke="#313131" stroke-width="1.5" stroke-linecap="round"/><path d="M190.08673,231.08461l-94.04477,-79.1445l84.3467,-77.37158" fill="none" stroke="#313131" stroke-width="1.5" stroke-linecap="round"/><path d="M209.48673,231.0846l-115.06756,-100.53341l62.78743,-55.43465" fill="none" stroke="#313131" stroke-width="1.5" stroke-linecap="round"/><path d="M227.08673,231.28459l-131.52228,-116.10473l45.94154,-40.23152" fill="none" stroke="#313131" stroke-width="1.5" stroke-linecap="round"/><path d="M246.48672,231.28461l-149.46584,-134.37303l25.53734,-21.26538" fill="none" stroke="#313131" stroke-width="1.5" stroke-linecap="round"/><path d="M96.20119,77.80378l170.35221,153.28083" fill="none" stroke="#313131" stroke-width="1.5" stroke-linecap="round"/><path d="M284.1534,231.28461l-167.09208,-155.89115" fill="none" stroke="#313131" stroke-width="1.5" stroke-linecap="round"/><path d="M141.55722,74.86868l161.99619,156.41591" fill="none" stroke="#313131" stroke-width="1.5" stroke-linecap="round"/><path d="M162.24796,75.20484l160.50544,155.87977" fill="none" stroke="#313131" stroke-width="1.5" stroke-linecap="round"/><path d="M342.15338,231.08462l-158.74531,-156.20497" fill="none" stroke="#313131" stroke-width="1.5" stroke-linecap="round"/><path d="M359.75339,231.2846l-155.71914,-156.54438" fill="none" stroke="#313131" stroke-width="1.5" stroke-linecap="round"/><path d="M224.77492,74.73943l154.37848,156.54519" fill="none" stroke="#313131" stroke-width="1.5" stroke-linecap="round"/><path d="M244.61584,74.57l137.53756,141.84795l-17.5,14.66667" data-paper-data="{&quot;index&quot;:null}" fill="none" stroke="#313131" stroke-width="1.5" stroke-linecap="round"/><path d="M261.97649,74.25799l121.44358,125.49329l-38.83334,31.33333" data-paper-data="{&quot;index&quot;:null}" fill="none" stroke="#313131" stroke-width="1.5" stroke-linecap="round"/><path d="M281.57323,74.90816l103.37802,110.85416l-57.96454,45.52228" data-paper-data="{&quot;index&quot;:null}" fill="none" stroke="#313131" stroke-width="1.5" stroke-linecap="round"/><path d="M298.08581,75.09422l86.46388,94.79787l-76.96297,61.39251" data-paper-data="{&quot;index&quot;:null}" fill="none" stroke="#313131" stroke-width="1.5" stroke-linecap="round"/><path d="M312.54496,74.18176l71.04471,80.52756l-95.20296,76.37526" data-paper-data="{&quot;index&quot;:null}" fill="none" stroke="#313131" stroke-width="1.5" stroke-linecap="round"/><path d="M330.4304,74.80085l53.62545,61.24557l-115.06912,95.03819" data-paper-data="{&quot;index&quot;:null}" fill="none" stroke="#313131" stroke-width="1.5" stroke-linecap="round"/><path d="M345.20792,75.34705l38.69064,46.24563l-132.51185,109.69193" data-paper-data="{&quot;index&quot;:null}" fill="none" stroke="#313131" stroke-width="1.5" stroke-linecap="round"/><path d="M358.80718,74.30973l24.61095,30.0691l-151.43141,126.90575" data-paper-data="{&quot;index&quot;:null}" fill="none" stroke="#313131" stroke-width="1.5" stroke-linecap="round"/><path d="M211.92006,231.08461l171.83666,-144.03095" data-paper-data="{&quot;index&quot;:null}" fill="none" stroke="#313131" stroke-width="1.5" stroke-linecap="round"/><path d="M194.48672,230.61793l183.77702,-155.15472" data-paper-data="{&quot;index&quot;:null}" fill="none" stroke="#313131" stroke-width="1.5" stroke-linecap="round"/><path d="M356.57923,74.83412l-181.65917,156.45046" data-paper-data="{&quot;index&quot;:null}" fill="none" stroke="#313131" stroke-width="1.5" stroke-linecap="round"/><path d="M334.42812,74.44763l-178.70806,156.63698" data-paper-data="{&quot;index&quot;:null}" fill="none" stroke="#313131" stroke-width="1.5" stroke-linecap="round"/><path d="M314.09685,74.35205l-177.77679,156.73255" data-paper-data="{&quot;index&quot;:null}" fill="none" stroke="#313131" stroke-width="1.5" stroke-linecap="round"/><path d="M294.85272,74.48008l-176.13267,156.80452" data-paper-data="{&quot;index&quot;:null}" fill="none" stroke="#313131" stroke-width="1.5" stroke-linecap="round"/><path d="M99.32005,231.28459l175.18689,-156.44496" data-paper-data="{&quot;index&quot;:null}" fill="none" stroke="#313131" stroke-width="1.5" stroke-linecap="round"/></g></g></svg>