<svg version="1.1" xmlns="http://www.w3.org/2000/svg" xmlns:xlink="http://www.w3.org/1999/xlink" width="308.37918" height="217.73466" viewBox="0,0,308.37918,217.73466"><defs><radialGradient cx="240.00001" cy="284.90128" r="143" gradientUnits="userSpaceOnUse" id="color-1"><stop offset="0" stop-color="#505050"/><stop offset="1" stop-color="#313131"/></radialGradient><linearGradient x1="239.31545" y1="268.68556" x2="239.31545" y2="293.18202" gradientUnits="userSpaceOnUse" id="color-2"><stop offset="0" stop-color="#000000" stop-opacity="0"/><stop offset="1" stop-color="#000000"/></linearGradient><linearGradient x1="239.6046" y1="268.03253" x2="239.6046" y2="292.52899" gradientUnits="userSpaceOnUse" id="color-3"><stop offset="0" stop-color="#000000" stop-opacity="0"/><stop offset="1" stop-color="#000000"/></linearGradient></defs><g transform="translate(-85.27044,-75.44735)"><g data-paper-data="{&quot;isPaintingLayer&quot;:true}" fill-rule="nonzero" stroke-linejoin="miter" stroke-miterlimit="10" stroke-dasharray="" stroke-dashoffset="0" style="mix-blend-mode: normal"><path d="M97.00001,291.40128v-13h286v13z" fill="url(#color-1)" stroke="#000000" stroke-width="0.5" stroke-linecap="butt"/><path d="M113.82006,278.16576l-18.5,-14l210.86847,-187.1297" fill="none" stroke="#313131" stroke-width="1.5" stroke-linecap="round"/><path d="M133.88673,278.16576l-37.83333,-30.33333l192.8412,-170.06806" fill="none" stroke="#313131" stroke-width="1.5" stroke-linecap="round"/><path d="M151.48673,278.36573l-55.38449,-46.70339l174.93327,-154.59385" fill="none" stroke="#313131" stroke-width="1.5" stroke-linecap="round"/><path d="M170.88673,278.36573l-74.08657,-61.80815l156.00041,-140.07488" fill="none" stroke="#313131" stroke-width="1.5" stroke-linecap="round"/><path d="M190.08673,278.16576l-94.04477,-79.1445l136.58549,-122.0353" fill="none" stroke="#313131" stroke-width="1.5" stroke-linecap="round"/><path d="M209.48673,278.16576l-115.06756,-100.53341l113.44676,-100.67955" fill="none" stroke="#313131" stroke-width="1.5" stroke-linecap="round"/><path d="M227.08673,278.36573l-131.52228,-116.10473l96.01969,-85.21746" fill="none" stroke="#313131" stroke-width="1.5" stroke-linecap="round"/><path d="M246.48672,278.36573l-149.46584,-134.37303l74.6014,-66.47865" fill="none" stroke="#313131" stroke-width="1.5" stroke-linecap="round"/><path d="M266.5534,278.16576l-170.35221,-153.28083l55.26386,-47.38314" fill="none" stroke="#313131" stroke-width="1.5" stroke-linecap="round"/><path d="M284.1534,278.36573l-188.59568,-171.00179l35.39356,-30.11654" fill="none" stroke="#313131" stroke-width="1.5" stroke-linecap="round"/><path d="M95.52416,86.83092l208.02926,191.53482" fill="none" stroke="#313131" stroke-width="1.5" stroke-linecap="round"/><path d="M106.2149,76.8765l216.53851,201.28927" fill="none" stroke="#313131" stroke-width="1.5" stroke-linecap="round"/><path d="M127.09303,76.84188l215.06035,201.32388" fill="none" stroke="#313131" stroke-width="1.5" stroke-linecap="round"/><path d="M147.67647,76.53149l212.07692,201.83426" fill="none" stroke="#313131" stroke-width="1.5" stroke-linecap="round"/><path d="M166.83596,76.19736l212.31744,202.16841" fill="none" stroke="#313131" stroke-width="1.5" stroke-linecap="round"/><path d="M186.01021,76.40399l196.14319,187.09509l-17.5,14.66667" data-paper-data="{&quot;index&quot;:null}" fill="none" stroke="#313131" stroke-width="1.5" stroke-linecap="round"/><path d="M205.85793,77.09201l177.56214,169.74043l-38.83334,31.33333" data-paper-data="{&quot;index&quot;:null}" fill="none" stroke="#313131" stroke-width="1.5" stroke-linecap="round"/><path d="M225.04448,77.45159l159.90677,155.39189l-57.96454,45.52228" data-paper-data="{&quot;index&quot;:null}" fill="none" stroke="#313131" stroke-width="1.5" stroke-linecap="round"/><path d="M244.84765,77.01374l139.70204,139.95952l-76.96297,61.39251" data-paper-data="{&quot;index&quot;:null}" fill="none" stroke="#313131" stroke-width="1.5" stroke-linecap="round"/><path d="M263.46916,76.93027l120.12052,124.86019l-95.20296,76.37526" data-paper-data="{&quot;index&quot;:null}" fill="none" stroke="#313131" stroke-width="1.5" stroke-linecap="round"/><path d="M282.94973,76.55803l101.10612,106.56954l-115.06912,95.03819" data-paper-data="{&quot;index&quot;:null}" fill="none" stroke="#313131" stroke-width="1.5" stroke-linecap="round"/><path d="M296.17942,76.84525l87.71914,91.82857l-132.51185,109.69193" data-paper-data="{&quot;index&quot;:null}" fill="none" stroke="#313131" stroke-width="1.5" stroke-linecap="round"/><path d="M313.60378,77.01775l69.81435,74.44224l-151.43141,126.90575" data-paper-data="{&quot;index&quot;:null}" fill="none" stroke="#313131" stroke-width="1.5" stroke-linecap="round"/><path d="M136.32006,278.16576l208.61088,-184.57573l38.82578,40.54479l-171.83666,144.03095" data-paper-data="{&quot;index&quot;:null}" fill="none" stroke="#313131" stroke-width="1.5" stroke-linecap="round"/><path d="M343.21545,77.14795l39.98831,41.61875l-188.71704,158.93238" data-paper-data="{&quot;index&quot;:null}" fill="none" stroke="#313131" stroke-width="1.5" stroke-linecap="round"/><path d="M358.93151,77.24743l24.96311,25.48895l-208.97456,175.62935" data-paper-data="{&quot;index&quot;:null}" fill="none" stroke="#313131" stroke-width="1.5" stroke-linecap="round"/><path d="M382.58486,83.2679l-226.86479,194.89787" data-paper-data="{&quot;index&quot;:null}" fill="none" stroke="#313131" stroke-width="1.5" stroke-linecap="round"/><path d="M343.67957,77.83253l-224.95952,200.53322" data-paper-data="{&quot;index&quot;:null}" fill="none" stroke="#313131" stroke-width="1.5" stroke-linecap="round"/><path d="M323.12228,77.85406l-223.80223,200.51169" data-paper-data="{&quot;index&quot;:null}" fill="none" stroke="#313131" stroke-width="1.5" stroke-linecap="round"/><path d="M328.959,77.24743l54.84614,56.07175" fill="none" stroke="#313131" stroke-width="1.5" stroke-linecap="round"/><path d="M363.58254,77.55383l-19.30339,16.23936" fill="none" stroke="#313131" stroke-width="1.5" stroke-linecap="round"/><path d="M85.27044,293.18202v-24.49645h308.09003v24.49645z" fill="url(#color-2)" stroke="#000000" stroke-width="0" stroke-linecap="butt"/><path d="M85.55958,292.52899v-24.49645h308.09003v24.49645z" fill="url(#color-3)" stroke="#000000" stroke-width="0" stroke-linecap="butt"/></g></g></svg>