<?xml version="1.0" ?><!DOCTYPE svg  PUBLIC '-//W3C//DTD SVG 1.1//EN'  'http://www.w3.org/Graphics/SVG/1.1/DTD/svg11.dtd'><svg enable-background="new 0 0 512 512" height="512px" id="Layer_1" version="1.1" viewBox="0 0 512 512" width="512px" xml:space="preserve" xmlns="http://www.w3.org/2000/svg" xmlns:xlink="http://www.w3.org/1999/xlink"><path d="M492.668,442.957c0,34.171-27.702,61.872-61.873,61.872H81.052c-34.171,0-61.875-27.701-61.875-61.872  V93.212c0-34.171,27.704-61.873,61.875-61.873h349.743c34.171,0,61.873,27.701,61.873,61.873V442.957z" fill="#203656"/><path d="M492.668,418.213c0,34.172-27.702,61.873-61.873,61.873H81.052c-34.171,0-61.875-27.701-61.875-61.873  V68.468c0-34.171,27.704-61.872,61.875-61.872h349.743c34.171,0,61.873,27.701,61.873,61.872V418.213z" fill="#3B5998"/><path d="M492.668,270.265L328.309,105.906L183.54,255.563l89.427,89.428l-46.634,37.74l97.354,97.355h107.107  c34.172,0,61.873-27.701,61.873-61.873V270.265z" fill="#28416D"/><path d="M277.508,382.73V255.563h42.684l6.391-49.555h-49.074v-31.638  c0-14.349,3.987-24.128,24.557-24.128l26.244-0.008v-44.327c-4.537-0.609-20.112-1.957-38.24-1.957  c-37.836,0-63.736,23.101-63.736,65.512v36.546H183.54v49.555h42.793V382.73H277.508z" fill="#FFFFFF" id="f_1_"/></svg>