<?xml version="1.0" ?><svg style="enable-background:new 0 0 512 512;" version="1.1" viewBox="0 0 512 512" xml:space="preserve" xmlns="http://www.w3.org/2000/svg" xmlns:xlink="http://www.w3.org/1999/xlink"><style type="text/css">
	.st0{fill:#6D1E0F;}
	.st1{fill:#FF4500;}
	.st2{fill:#A82B13;}
	.st3{opacity:0.45;fill:#231F20;}
	.st4{fill:#FFFFFF;}
</style><g id="Edges"/><g id="Background_Bottom"><g><path class="st0" d="M492.3,443.1c0,34.2-27.7,61.9-61.9,61.9H80.7c-34.2,0-61.9-27.7-61.9-61.9V93.4c0-34.2,27.7-61.9,61.9-61.9    h349.7c34.2,0,61.9,27.7,61.9,61.9V443.1z"/></g></g><g id="Background"><path class="st1" d="M492.3,418.4c0,34.2-27.7,61.9-61.9,61.9H80.7c-34.2,0-61.9-27.7-61.9-61.9V68.6c0-34.2,27.7-61.9,61.9-61.9   h349.7c34.2,0,61.9,27.7,61.9,61.9V418.4z"/></g><g id="Shadow"><path class="st2" d="M256.8,184.1l-0.4,0.3c0.7,0.3,1.4,0.6,2.2,0.8L256.8,184.1z"/><path class="st3" d="M492.3,275.7v-28.1v-27.1v-1.8l-0.9,0.9L389.8,117.9c-2.5-4.1-6-7.7-10.4-10.2c-11.9-6.9-27.2-4.6-36.2,5.5   c-2.3,2.6-4.1,5.7-6.2,8.7c-19.7-4.7-39.6-9.5-59.8-14.3c-0.6,1.6-1.1,2.8-1.6,4.2c-7.3,20.7-14.7,41.3-21.7,62   c-1.3,3.8-2.8,5.8-7.1,5.2c-2.2-0.3-4.5,0.3-6.7,0.4c-27.5,2.2-53.6,9.2-77.5,23.4c-2,1.2-3.3,1.2-5.2-0.2   c-9.9-7-20.8-8.8-32.2-4.9c-13.6,4.6-21.9,14.2-24.1,28.4c-2.2,13.8,2.5,25.3,13.3,34.2c1.1,0.9,2.3,2.6,2.2,3.8   c-2.1,17.2,2.1,32.8,11.6,47c5.5,8.2,12,15.3,19.4,21.4l147.7,147.8h0.6v0l134.6-0.2c34.2,0,61.9-27.7,61.9-61.9   c0-3.4,0-13.7,0-25.2h0V275.7z"/></g><g id="Symbol"><path class="st4" d="M404.7,210.8c-11.5-16-33.8-19.9-49.9-8.4c-2.5,1.8-4.1,1.6-6.4,0.2c-19.7-11.8-41.2-18.6-63.8-21.7   c-6.9-1-13.8-1.5-20.9-2.3c6.7-19.2,13.4-38.2,20.1-57.2c0.8,0.1,1.4,0.1,1.9,0.2c14.9,3.6,29.8,7.2,44.7,10.6   c3.2,0.7,4.3,2.1,4.7,5.3c1.7,13.3,12.9,23.9,26,25c14.4,1.1,26.9-7.2,31.1-20.5c4-13.1-1.5-27.4-13.4-34.2   c-11.9-6.9-27.2-4.6-36.2,5.5c-2.3,2.6-4.1,5.7-6.2,8.7c-19.7-4.7-39.6-9.5-59.8-14.3c-0.6,1.6-1.1,2.8-1.6,4.2   c-7.3,20.7-14.7,41.3-21.7,62c-1.3,3.8-2.8,5.8-7.1,5.2c-2.2-0.3-4.5,0.3-6.7,0.4c-27.5,2.2-53.6,9.2-77.5,23.4   c-2,1.2-3.3,1.2-5.2-0.2c-9.9-7-20.8-8.8-32.2-4.9c-13.6,4.6-21.9,14.2-24.1,28.4c-2.2,13.8,2.5,25.3,13.3,34.2   c1.1,0.9,2.3,2.6,2.2,3.8c-2.1,17.2,2.1,32.8,11.6,47c11,16.4,26,28.3,43.6,36.7c49.2,23.5,99.7,25,151,7.6   c20.7-7.1,39.1-18.1,53.8-34.7c14.2-16.1,21.7-34.6,19-56.5c-0.1-1.1,1.1-2.7,2.2-3.5C412.7,248.8,416.2,226.8,404.7,210.8z    M364,115.1c9.8,0,17.9,8.3,17.9,18.2c-0.1,9.8-8.3,17.9-18.1,17.8c-9.8-0.1-17.9-8.4-17.7-18.3C346.3,123.2,354.5,115.1,364,115.1   z M119.5,249.7c-9.6-7.9-11-22.7-3.2-32.7c7.9-10.3,22.4-12.9,32.8-5.5C136.2,221.9,125.6,233.9,119.5,249.7z M189.2,256.2   c0-12.1,9.5-21.8,21.6-22c11.9-0.1,22.2,10.1,22.1,22c-0.1,12.3-9.7,21.7-22.2,21.7C198.4,277.9,189.1,268.6,189.2,256.2z    M306.4,316.9c-8.4,7.2-18.2,11.3-28.9,13.4c-7.4,1.4-14.9,2-22.4,3c-15.3-0.5-29.9-3.1-43.1-11.2c-2.5-1.5-4.9-3.4-7-5.3   c-3-2.7-3.1-6.3-0.7-8.8c2.3-2.4,5.5-2.3,8.5,0.3c10.1,8.8,22.4,11.8,35.3,12.7c15.2,1.1,29.9-0.7,43.6-8c2.6-1.4,4.9-3.2,7.3-5   c3.1-2.3,6.3-2.4,8.5,0.1C309.8,310.7,309.4,314.3,306.4,316.9z M302.8,277.9c-12.2,0-21.8-9.6-21.7-21.8   c0.1-12.1,9.8-21.9,21.8-21.9c12.1,0,22,10,21.9,22.2C324.7,268.6,315.1,277.9,302.8,277.9z M391.3,249.9   c-6-15.6-16.4-27.8-29.3-38.1c9.6-7.9,25.2-5.2,33.3,5.5C402.8,227.5,401,243.5,391.3,249.9z"/></g></svg>